<?xml version="1.0" encoding="iso-8859-1"?>
<!-- Generator: Adobe Illustrator 16.0.0, SVG Export Plug-In . SVG Version: 6.00 Build 0)  -->
<!DOCTYPE svg PUBLIC "-//W3C//DTD SVG 1.1//EN" "http://www.w3.org/Graphics/SVG/1.1/DTD/svg11.dtd">
<svg version="1.1" id="Capa_1" xmlns="http://www.w3.org/2000/svg" xmlns:xlink="http://www.w3.org/1999/xlink" x="0px" y="0px"
	 width="480.369px" height="480.369px" viewBox="0 0 480.369 480.369" style="enable-background:new 0 0 480.369 480.369;"
	 xml:space="preserve">
<g>
	<path d="M373.386,340.729h-97.017l-8.222-257.126c8.596-0.014,15.585-7.01,15.585-15.609c0-8.609-7.002-15.611-15.607-15.611h-5.14
		c0.614-1.494,0.958-3.127,0.958-4.842c0-4.874-2.739-9.117-6.759-11.274c0.624-1.72,1.107-3.776,1.107-6.021
		c0-7.168-4.521-12.783-10.294-12.783h-3.674V4.137c0-2.285-1.854-4.137-4.139-4.137s-4.137,1.852-4.137,4.137v13.324h-3.676
		c-5.773,0-10.292,5.615-10.292,12.783c0,2.245,0.482,4.301,1.107,6.021c-4.021,2.157-6.761,6.4-6.761,11.274
		c0,1.714,0.344,3.348,0.958,4.842h-5.135c-8.609,0-15.611,7.004-15.611,15.611c0,8.599,6.987,15.595,15.583,15.609l-8.22,257.125
		h-97.015c-2.284,0-4.137,1.854-4.137,4.137v13.971c0,2.283,1.853,4.137,4.137,4.137h20.775l42.906,82.188h-18.784
		c-2.284,0-4.136,1.852-4.136,4.137v26.938c0,2.285,1.852,4.137,4.136,4.137h176.602c2.285,0,4.137-1.852,4.137-4.137v-26.938
		c0-2.285-1.852-4.137-4.137-4.137h-18.784l42.908-82.188h20.773c2.286,0,4.137-1.854,4.137-4.137v-13.969
		C377.522,342.582,375.672,340.729,373.386,340.729z M229.213,43.029c1.579,0,3.018-0.896,3.712-2.312
		c0.695-1.417,0.524-3.105-0.439-4.354c-0.023-0.028-2.129-2.897-2.129-6.118c0-2.806,1.401-4.51,2.018-4.51H248
		c0.616,0,2.021,1.704,2.021,4.51c0,3.244-2.125,6.111-2.129,6.118c-0.966,1.248-1.138,2.938-0.441,4.354
		c0.695,1.417,2.137,2.312,3.712,2.312c2.489,0,4.512,2.022,4.512,4.511c0,2.487-2.021,4.51-4.512,4.51h-21.948
		c-2.489,0-4.511-2.023-4.511-4.51C224.703,45.051,226.727,43.029,229.213,43.029z M204.914,67.993c0-4.046,3.292-7.338,7.338-7.338
		h55.875c4.046,0,7.335,3.292,7.335,7.338c0,4.045-3.29,7.336-7.335,7.336h-4.245h-47.385h-4.245
		C208.206,75.33,204.914,72.039,204.914,67.993z M220.502,83.603h39.373l8.22,257.125h-55.811L220.502,83.603z M324.351,472.096
		H156.025v-18.664h21.473H302.88h21.472L324.351,472.096L324.351,472.096z M300.371,445.158H180.004l-42.907-82.188h206.182
		L300.371,445.158z M369.251,354.697h-19.146H130.271h-19.145v-5.695h96.885h64.354c0.011,0.002,0.021,0.002,0.026,0h96.858
		L369.251,354.697L369.251,354.697z"/>
</g>
<g>
</g>
<g>
</g>
<g>
</g>
<g>
</g>
<g>
</g>
<g>
</g>
<g>
</g>
<g>
</g>
<g>
</g>
<g>
</g>
<g>
</g>
<g>
</g>
<g>
</g>
<g>
</g>
<g>
</g>
</svg>
